<?xml version="1.0" encoding="UTF-8"?>
<svg xmlns="http://www.w3.org/2000/svg" xmlns:xlink="http://www.w3.org/1999/xlink" width="781.72pt" height="246.62pt" viewBox="0 0 781.72 246.62" version="1.1">
<defs>
<clipPath id="clip1">
  <path d="M 207 218 L 237 218 L 237 246.621094 L 207 246.621094 Z M 207 218 "/>
</clipPath>
<clipPath id="clip2">
  <path d="M 439 218 L 468 218 L 468 246.621094 L 439 246.621094 Z M 439 218 "/>
</clipPath>
<clipPath id="clip3">
  <path d="M 513 218 L 543 218 L 543 246.621094 L 513 246.621094 Z M 513 218 "/>
</clipPath>
<clipPath id="clip4">
  <path d="M 629 218 L 658 218 L 658 246.621094 L 629 246.621094 Z M 629 218 "/>
</clipPath>
<clipPath id="clip5">
  <path d="M 692 218 L 721 218 L 721 246.621094 L 692 246.621094 Z M 692 218 "/>
</clipPath>
<clipPath id="clip6">
  <path d="M 725 219 L 754 219 L 754 246.621094 L 725 246.621094 Z M 725 219 "/>
</clipPath>
<clipPath id="clip7">
  <path d="M 754 219 L 781.71875 219 L 781.71875 246 L 754 246 Z M 754 219 "/>
</clipPath>
</defs>
<g id="surface1">
<path style=" stroke:none;fill-rule:nonzero;fill:rgb(13.299561%,12.199402%,12.199402%);fill-opacity:1;" d="M 438.324219 41.617188 L 417.664063 0.511719 L 347.308594 0.511719 L 390.863281 82.722656 Z M 438.324219 41.617188 "/>
<path style=" stroke:none;fill-rule:nonzero;fill:rgb(13.299561%,12.199402%,12.199402%);fill-opacity:1;" d="M 509.238281 171.605469 L 467.359375 89.398438 L 539.949219 12.332031 Z M 605.835938 0.515625 L 479.644531 0.515625 L 307.664063 186.503906 L 376.34375 186.503906 L 421.570313 137.183594 L 446.140625 186.503906 L 563.957031 186.503906 L 579.59375 103.785156 L 594.109375 149.511719 L 637.105469 102.246094 "/>
<path style=" stroke:none;fill-rule:nonzero;fill:rgb(13.299561%,12.199402%,12.199402%);fill-opacity:1;" d="M 713.042969 0.511719 L 598.019531 160.816406 L 655.53125 160.816406 L 699.640625 98.132813 L 682.890625 186.507813 L 740.964844 186.507813 L 776.695313 0.511719 "/>
<path style=" stroke:none;fill-rule:nonzero;fill:rgb(100%,0%,0%);fill-opacity:1;" d="M 99.949219 7.191406 C 99.390625 15.414063 97.714844 24.660156 98.832031 33.394531 C 99.949219 45.726563 108.324219 51.894531 119.492188 56.003906 C 122.84375 57.03125 127.308594 59.085938 131.777344 58.058594 C 134.011719 57.546875 135.125 56.515625 136.242188 55.488281 C 140.152344 53.433594 144.617188 51.378906 150.203125 50.863281 C 158.578125 49.839844 166.394531 51.894531 171.980469 53.433594 C 177.5625 54.976563 185.378906 57.03125 190.40625 59.601563 C 193.195313 61.140625 194.871094 63.195313 196.546875 65.765625 C 199.339844 69.875 199.898438 76.554688 206.039063 77.582031 C 207.15625 72.445313 206.039063 66.277344 206.597656 60.113281 C 206.597656 54.460938 207.714844 49.324219 208.832031 44.1875 C 210.507813 36.992188 212.742188 29.800781 214.972656 22.605469 C 215.53125 21.578125 216.648438 15.925781 218.882813 16.953125 C 220 17.46875 219.441406 19.523438 219.441406 20.550781 C 219.441406 25.175781 218.882813 28.257813 218.324219 32.882813 C 217.207031 44.1875 217.207031 56.515625 219.441406 66.277344 C 220.558594 71.417969 222.234375 76.554688 221.675781 82.207031 C 221.675781 83.746094 220.558594 85.289063 220.558594 87.34375 C 220.558594 88.886719 220.558594 89.914063 220 90.941406 C 219.441406 92.480469 217.765625 94.535156 216.648438 96.59375 C 216.089844 97.105469 215.53125 98.132813 214.972656 99.160156 C 214.414063 100.1875 213.300781 100.703125 213.300781 101.730469 C 213.300781 103.273438 217.207031 106.867188 218.882813 107.382813 C 227.257813 109.4375 236.191406 110.464844 241.21875 115.089844 C 244.007813 117.65625 246.242188 121.253906 246.800781 125.878906 C 247.359375 129.988281 245.683594 133.585938 244.007813 137.183594 C 242.890625 139.75 241.777344 145.914063 239.542969 146.945313 C 237.867188 147.972656 235.632813 147.457031 233.957031 147.972656 C 233.398438 150.027344 232.28125 151.566406 232.28125 154.136719 C 230.609375 156.191406 228.933594 157.21875 227.257813 158.761719 C 227.816406 162.871094 225.023438 163.898438 221.117188 163.898438 C 210.507813 172.121094 188.730469 166.46875 179.796875 161.332031 C 175.328125 164.414063 170.304688 166.980469 170.863281 174.6875 C 174.769531 176.746094 177.5625 178.800781 182.589844 180.339844 C 188.730469 182.394531 196.546875 181.367188 200.457031 184.453125 L 201.574219 185.480469 L 232.84375 185.480469 L 321.066406 91.453125 L 272.484375 0.511719 L 100.507813 0.511719 C 100.507813 2.566406 99.949219 5.136719 99.949219 7.191406 "/>
<path style=" stroke:none;fill-rule:nonzero;fill:rgb(100%,0%,0%);fill-opacity:1;" d="M 18.984375 184.964844 C 24.566406 179.828125 32.386719 175.71875 40.203125 172.632813 C 46.34375 170.066406 52.488281 168.011719 57.511719 164.414063 C 59.746094 162.871094 61.421875 161.332031 63.65625 160.816406 C 68.679688 160.304688 73.148438 162.359375 77.054688 162.871094 C 87.105469 164.925781 94.921875 160.304688 99.949219 155.164063 C 102.742188 152.597656 105.53125 150.542969 107.207031 146.945313 C 108.882813 142.835938 108.324219 137.695313 108.324219 132.042969 C 108.324219 121.253906 112.792969 114.0625 112.792969 104.300781 C 112.792969 99.160156 111.675781 94.535156 112.234375 88.886719 C 106.648438 86.316406 99.949219 83.746094 94.921875 78.609375 C 90.457031 73.984375 85.429688 65.25 86.546875 58.058594 C 83.199219 53.433594 79.847656 46.753906 79.847656 39.046875 C 79.847656 31.339844 82.082031 25.175781 84.316406 18.496094 C 85.988281 12.332031 88.222656 6.164063 90.457031 0 L 52.488281 0 L 8.933594 185.992188 L 17.867188 185.992188 C 18.425781 185.480469 18.984375 184.964844 18.984375 184.964844 "/>
<path style=" stroke:none;fill-rule:nonzero;fill:rgb(13.299561%,12.199402%,12.199402%);fill-opacity:1;" d="M 8.375 222.472656 L 12.285156 222.472656 Z M 29.59375 222.472656 L 33.503906 222.472656 Z M 3.351563 243.023438 L 5.023438 235.828125 Z M 15.636719 243.023438 L 15.636719 240.96875 L 17.867188 240.96875 L 16.75 243.023438 Z M 28.476563 243.023438 L 29.59375 237.886719 "/>
<path style=" stroke:none;fill-rule:nonzero;fill:rgb(13.299561%,12.199402%,12.199402%);fill-opacity:1;" d="M 36.851563 219.390625 L 27.917969 219.390625 L 16.75 238.398438 L 14.519531 219.390625 L 6.140625 219.390625 L 0 245.59375 L 6.140625 245.59375 L 10.050781 225.039063 L 12.84375 245.59375 L 17.867188 245.59375 L 30.152344 225.039063 L 24.566406 245.59375 L 30.710938 245.59375 "/>
<path style=" stroke:none;fill-rule:nonzero;fill:rgb(13.299561%,12.199402%,12.199402%);fill-opacity:1;" d="M 40.761719 243.023438 L 45.785156 221.957031 L 46.34375 221.957031 L 41.320313 243.023438 Z M 40.761719 243.023438 "/>
<path style=" stroke:none;fill-rule:nonzero;fill:rgb(13.299561%,12.199402%,12.199402%);fill-opacity:1;" d="M 65.332031 219.390625 L 43.550781 219.390625 L 37.410156 245.59375 L 59.746094 245.59375 L 60.863281 240.96875 L 44.667969 240.96875 L 46.34375 234.289063 L 60.863281 234.289063 L 61.980469 230.179688 L 47.460938 230.179688 L 48.578125 224.527344 L 64.214844 224.527344 "/>
<path style=" stroke:none;fill-rule:nonzero;fill:rgb(13.299561%,12.199402%,12.199402%);fill-opacity:1;" d="M 73.707031 222.472656 L 77.613281 222.472656 Z M 94.921875 222.472656 L 98.832031 222.472656 Z M 69.238281 243.023438 L 70.914063 235.828125 Z M 80.964844 243.023438 L 80.964844 240.96875 L 83.199219 240.96875 L 82.082031 243.023438 Z M 93.808594 243.023438 L 94.921875 237.886719 "/>
<path style=" stroke:none;fill-rule:nonzero;fill:rgb(13.299561%,12.199402%,12.199402%);fill-opacity:1;" d="M 102.183594 219.390625 L 93.25 219.390625 L 82.640625 238.398438 L 80.40625 219.390625 L 71.472656 219.390625 L 65.328125 245.59375 L 71.472656 245.59375 L 75.9375 225.039063 L 78.730469 245.59375 L 83.199219 245.59375 L 95.480469 225.039063 L 90.457031 245.59375 L 96.039063 245.59375 "/>
<path style=" stroke:none;fill-rule:nonzero;fill:rgb(13.299561%,12.199402%,12.199402%);fill-opacity:1;" d="M 128.425781 228.125 L 128.425781 226.582031 C 128.425781 225.039063 127.867188 222.984375 126.191406 221.957031 C 128.984375 222.472656 129.542969 223.5 129.542969 225.554688 C 128.984375 226.582031 128.984375 227.609375 128.425781 228.125 M 125.632813 241.996094 C 126.75 240.96875 127.867188 238.914063 127.867188 237.371094 C 127.867188 236.855469 127.867188 235.832031 127.308594 235.316406 C 128.425781 235.832031 128.425781 237.371094 128.425781 237.886719 C 127.867188 239.425781 126.75 240.96875 125.632813 241.996094 M 108.324219 243.023438 L 113.351563 221.957031 L 113.90625 221.957031 L 111.675781 232.746094 "/>
<path style=" stroke:none;fill-rule:nonzero;fill:rgb(13.299561%,12.199402%,12.199402%);fill-opacity:1;" d="M 111.675781 240.96875 L 113.351563 233.773438 L 119.492188 233.773438 C 121.726563 233.773438 124.519531 233.773438 124.519531 236.859375 C 124.519531 239.425781 122.285156 240.96875 119.492188 240.96875 Z M 114.46875 230.179688 L 116.140625 224.011719 L 122.84375 224.011719 C 125.074219 224.011719 126.191406 224.527344 126.191406 226.582031 C 126.191406 228.636719 123.960938 230.179688 121.726563 230.179688 Z M 122.84375 219.390625 L 111.117188 219.390625 L 104.976563 245.59375 L 120.050781 245.59375 C 125.632813 245.59375 131.21875 242.511719 131.21875 236.859375 C 131.21875 234.289063 129.542969 232.234375 126.75 231.71875 C 130.101563 231.207031 132.335938 228.636719 132.335938 225.554688 C 131.777344 220.417969 128.425781 219.390625 122.84375 219.390625 "/>
<path style=" stroke:none;fill-rule:nonzero;fill:rgb(13.299561%,12.199402%,12.199402%);fill-opacity:1;" d="M 138.476563 243.023438 L 142.941406 221.957031 L 143.503906 221.957031 L 139.035156 243.023438 Z M 138.476563 243.023438 "/>
<path style=" stroke:none;fill-rule:nonzero;fill:rgb(13.299561%,12.199402%,12.199402%);fill-opacity:1;" d="M 162.488281 219.390625 L 140.710938 219.390625 L 135.128906 245.59375 L 156.902344 245.59375 L 158.019531 240.96875 L 142.386719 240.96875 L 143.503906 234.289063 L 158.019531 234.289063 L 159.136719 230.179688 L 144.617188 230.179688 L 146.292969 224.527344 L 161.371094 224.527344 "/>
<path style=" stroke:none;fill-rule:nonzero;fill:rgb(13.299561%,12.199402%,12.199402%);fill-opacity:1;" d="M 188.171875 229.152344 C 188.171875 228.636719 188.730469 227.609375 188.730469 227.097656 C 188.730469 225.039063 188.171875 222.984375 185.378906 221.957031 C 188.730469 222.472656 189.289063 224.011719 189.289063 226.070313 C 188.730469 227.609375 188.730469 228.636719 188.171875 229.152344 Z M 166.953125 243.023438 L 171.980469 221.957031 L 172.539063 221.957031 L 167.511719 243.023438 Z M 184.820313 243.023438 L 184.820313 238.398438 C 184.820313 237.882813 184.820313 236.859375 184.265625 235.832031 C 184.820313 235.832031 184.820313 236.34375 184.820313 237.882813 L 184.820313 239.425781 C 185.378906 240.96875 185.378906 241.480469 184.820313 243.023438 C 185.378906 243.023438 185.378906 243.023438 184.820313 243.023438 "/>
<path style=" stroke:none;fill-rule:nonzero;fill:rgb(13.299561%,12.199402%,12.199402%);fill-opacity:1;" d="M 173.097656 231.207031 L 174.769531 224.011719 L 180.914063 224.011719 C 183.144531 224.011719 185.378906 224.527344 185.378906 227.097656 C 185.378906 230.179688 182.03125 231.207031 178.679688 231.207031 Z M 183.144531 219.390625 L 169.746094 219.390625 L 163.601563 245.59375 L 169.746094 245.59375 L 171.980469 235.316406 L 178.121094 235.316406 C 180.355469 235.316406 182.03125 235.832031 182.03125 238.398438 C 182.03125 239.941406 181.472656 241.996094 181.472656 243.539063 C 181.472656 244.050781 181.472656 244.5625 182.03125 245.078125 L 188.171875 245.078125 C 187.613281 244.5625 187.613281 243.023438 187.613281 241.996094 L 187.613281 237.371094 C 187.613281 235.316406 187.054688 233.261719 184.820313 232.746094 C 188.730469 232.234375 191.523438 229.152344 191.523438 225.554688 C 191.523438 221.445313 188.171875 219.390625 183.144531 219.390625 "/>
<path style=" stroke:none;fill-rule:nonzero;fill:rgb(13.299561%,12.199402%,12.199402%);fill-opacity:1;" d="M 226.140625 242.511719 C 230.609375 239.941406 232.839844 235.316406 232.839844 230.179688 C 232.839844 226.070313 231.164063 222.984375 228.375 221.957031 C 231.164063 222.984375 233.960938 225.039063 233.960938 230.179688 C 233.398438 235.316406 231.164063 240.453125 226.140625 242.511719 M 216.648438 243.023438 C 212.742188 241.996094 211.066406 238.914063 211.066406 234.289063 C 211.066406 229.664063 213.296875 225.039063 217.207031 222.984375 C 213.855469 225.554688 211.621094 230.179688 211.621094 234.289063 C 211.621094 238.914063 213.296875 241.996094 216.648438 243.023438 "/>
<g clip-path="url(#clip1)" clip-rule="nonzero">
<path style=" stroke:none;fill-rule:nonzero;fill:rgb(13.299561%,12.199402%,12.199402%);fill-opacity:1;" d="M 220.558594 241.480469 C 216.089844 241.480469 213.855469 238.398438 213.855469 234.804688 C 213.855469 229.664063 216.648438 224.011719 223.351563 224.011719 C 227.816406 224.011719 229.492188 227.097656 229.492188 230.691406 C 230.050781 235.316406 226.699219 241.480469 220.558594 241.480469 M 223.351563 218.875 C 213.855469 218.875 207.714844 226.070313 207.714844 234.804688 C 207.714844 241.996094 212.183594 246.621094 220.558594 246.621094 C 230.609375 246.621094 236.191406 238.914063 236.191406 230.179688 C 236.191406 222.984375 231.164063 218.875 223.351563 218.875 "/>
</g>
<path style=" stroke:none;fill-rule:nonzero;fill:rgb(13.299561%,12.199402%,12.199402%);fill-opacity:1;" d="M 242.335938 243.023438 L 247.359375 221.957031 L 247.917969 221.957031 L 245.125 232.746094 L 242.890625 243.023438 "/>
<path style=" stroke:none;fill-rule:nonzero;fill:rgb(13.299561%,12.199402%,12.199402%);fill-opacity:1;" d="M 265.226563 219.390625 L 245.125 219.390625 L 238.984375 245.59375 L 245.125 245.59375 L 247.359375 234.804688 L 259.644531 234.804688 L 260.761719 230.179688 L 248.476563 230.179688 L 250.152344 224.527344 L 264.109375 224.527344 "/>
<path style=" stroke:none;fill-rule:nonzero;fill:rgb(13.299561%,12.199402%,12.199402%);fill-opacity:1;" d="M 286.445313 243.023438 L 290.914063 221.957031 L 291.472656 221.957031 L 287.003906 243.023438 Z M 286.445313 243.023438 "/>
<path style=" stroke:none;fill-rule:nonzero;fill:rgb(13.299561%,12.199402%,12.199402%);fill-opacity:1;" d="M 303.753906 219.390625 L 279.746094 219.390625 L 278.628906 224.527344 L 287.5625 224.527344 L 282.535156 245.59375 L 289.238281 245.59375 L 293.703125 224.527344 L 302.636719 224.527344 "/>
<path style=" stroke:none;fill-rule:nonzero;fill:rgb(13.299561%,12.199402%,12.199402%);fill-opacity:1;" d="M 327.207031 229.152344 C 327.207031 228.636719 327.765625 227.609375 327.765625 227.097656 C 327.765625 225.039063 327.207031 222.984375 324.414063 221.957031 C 327.765625 222.472656 328.324219 224.011719 328.324219 226.070313 C 328.324219 227.609375 327.765625 228.636719 327.207031 229.152344 Z M 306.546875 243.023438 L 311.574219 221.957031 L 312.132813 221.957031 L 307.105469 243.023438 Z M 323.855469 243.023438 L 323.855469 238.398438 C 323.855469 237.882813 323.855469 236.859375 323.296875 235.832031 C 323.855469 235.832031 323.855469 236.34375 323.855469 237.882813 L 323.855469 239.425781 C 324.414063 240.96875 324.414063 241.480469 323.855469 243.023438 C 324.414063 243.023438 324.414063 243.023438 323.855469 243.023438 "/>
<path style=" stroke:none;fill-rule:nonzero;fill:rgb(13.299561%,12.199402%,12.199402%);fill-opacity:1;" d="M 312.6875 231.207031 L 314.363281 224.011719 L 320.507813 224.011719 C 322.738281 224.011719 324.972656 224.527344 324.972656 227.097656 C 324.972656 230.179688 321.621094 231.207031 318.273438 231.207031 Z M 322.738281 219.390625 L 309.339844 219.390625 L 303.195313 245.59375 L 309.339844 245.59375 L 311.570313 235.316406 L 317.714844 235.316406 C 319.949219 235.316406 321.621094 235.832031 321.621094 238.398438 C 321.621094 239.941406 321.0625 241.996094 321.0625 243.539063 L 321.0625 245.078125 L 327.207031 245.078125 C 326.648438 244.5625 326.648438 243.023438 326.648438 241.996094 L 326.648438 237.371094 C 326.648438 235.316406 326.089844 233.261719 323.855469 232.746094 C 327.765625 232.234375 330.558594 229.152344 330.558594 225.554688 C 331.113281 221.445313 327.765625 219.390625 322.738281 219.390625 "/>
<path style=" stroke:none;fill-rule:nonzero;fill:rgb(13.299561%,12.199402%,12.199402%);fill-opacity:1;" d="M 350.660156 222.472656 L 351.21875 221.957031 L 353.449219 221.957031 L 353.449219 222.472656 Z M 337.257813 243.023438 L 339.492188 239.425781 Z M 356.800781 243.023438 L 356.242188 237.886719 L 355.125 230.691406 "/>
<path style=" stroke:none;fill-rule:nonzero;fill:rgb(13.299561%,12.199402%,12.199402%);fill-opacity:1;" d="M 345.074219 235.316406 L 351.21875 225.039063 L 352.335938 235.316406 Z M 355.683594 219.390625 L 348.984375 219.390625 L 332.230469 245.59375 L 338.933594 245.59375 L 342.28125 239.941406 L 352.890625 239.941406 L 354.007813 245.59375 L 360.152344 245.59375 "/>
<path style=" stroke:none;fill-rule:nonzero;fill:rgb(13.299561%,12.199402%,12.199402%);fill-opacity:1;" d="M 383.042969 241.996094 C 386.953125 239.941406 389.1875 235.832031 389.1875 230.691406 C 389.1875 226.582031 387.511719 223.5 384.160156 222.472656 C 388.070313 223.5 390.304688 225.554688 390.304688 229.664063 C 390.304688 232.746094 389.1875 239.425781 383.042969 241.996094 M 367.96875 243.023438 L 372.992188 221.957031 L 373.550781 221.957031 "/>
<path style=" stroke:none;fill-rule:nonzero;fill:rgb(13.299561%,12.199402%,12.199402%);fill-opacity:1;" d="M 371.878906 240.96875 L 375.785156 224.527344 L 380.253906 224.527344 C 384.71875 224.527344 386.394531 227.097656 386.394531 230.691406 C 386.394531 236.34375 383.042969 240.96875 376.34375 240.96875 Z M 380.8125 219.390625 L 370.761719 219.390625 L 364.617188 245.59375 L 376.34375 245.59375 C 387.511719 245.59375 393.09375 238.914063 393.09375 229.664063 C 393.09375 223.5 388.628906 219.390625 380.8125 219.390625 "/>
<path style=" stroke:none;fill-rule:nonzero;fill:rgb(13.299561%,12.199402%,12.199402%);fill-opacity:1;" d="M 398.121094 243.023438 L 403.144531 221.957031 L 403.703125 221.957031 L 398.679688 243.023438 Z M 398.121094 243.023438 "/>
<path style=" stroke:none;fill-rule:nonzero;fill:rgb(13.299561%,12.199402%,12.199402%);fill-opacity:1;" d="M 407.054688 219.390625 L 400.910156 219.390625 L 394.769531 245.59375 L 400.910156 245.59375 Z M 407.054688 219.390625 "/>
<path style=" stroke:none;fill-rule:nonzero;fill:rgb(13.299561%,12.199402%,12.199402%);fill-opacity:1;" d="M 434.414063 221.957031 L 434.414063 222.984375 Z M 415.988281 221.957031 L 418.222656 221.957031 L 419.339844 224.527344 L 415.429688 224.527344 L 414.871094 226.582031 Z M 410.964844 243.023438 L 414.871094 227.097656 Z M 427.15625 243.023438 L 426.039063 240.453125 L 429.945313 240.453125 L 429.390625 243.023438 Z M 427.15625 243.023438 "/>
<path style=" stroke:none;fill-rule:nonzero;fill:rgb(13.299561%,12.199402%,12.199402%);fill-opacity:1;" d="M 437.765625 219.390625 L 431.621094 219.390625 L 427.714844 237.886719 L 419.898438 219.390625 L 413.753906 219.390625 L 407.613281 245.59375 L 413.195313 245.59375 L 417.664063 227.097656 L 425.480469 245.59375 L 431.621094 245.59375 "/>
<path style=" stroke:none;fill-rule:nonzero;fill:rgb(13.299561%,12.199402%,12.199402%);fill-opacity:1;" d="M 464.007813 225.554688 C 463.449219 224.011719 462.332031 222.984375 461.214844 222.472656 C 462.890625 222.984375 464.007813 224.011719 465.125 225.554688 Z M 461.214844 240.453125 C 461.773438 239.941406 462.332031 238.914063 462.890625 237.886719 L 462.332031 240.453125 Z M 448.933594 243.023438 C 445.023438 241.996094 443.347656 238.914063 443.347656 234.289063 C 443.347656 229.664063 445.582031 225.039063 449.488281 222.984375 C 446.140625 225.554688 443.90625 230.179688 443.90625 234.289063 C 443.347656 238.914063 445.582031 241.996094 448.933594 243.023438 "/>
<g clip-path="url(#clip2)" clip-rule="nonzero">
<path style=" stroke:none;fill-rule:nonzero;fill:rgb(13.299561%,12.199402%,12.199402%);fill-opacity:1;" d="M 455.632813 218.875 C 446.140625 218.875 439.996094 226.070313 439.996094 234.804688 C 439.996094 241.996094 444.464844 246.621094 452.839844 246.621094 C 455.632813 246.621094 458.425781 245.59375 460.101563 243.539063 L 460.101563 246.105469 L 464.007813 246.105469 L 467.359375 231.71875 L 455.074219 231.71875 L 453.957031 235.832031 L 460.65625 235.832031 C 459.539063 239.425781 457.308594 241.480469 452.839844 241.480469 C 448.375 241.480469 446.140625 238.398438 446.140625 234.804688 C 446.140625 229.664063 448.933594 224.011719 455.632813 224.011719 C 458.984375 224.011719 461.214844 225.039063 461.214844 228.636719 L 467.359375 228.636719 C 467.917969 221.957031 462.332031 218.875 455.632813 218.875 "/>
</g>
<path style=" stroke:none;fill-rule:nonzero;fill:rgb(13.299561%,12.199402%,12.199402%);fill-opacity:1;" d="M 504.769531 231.71875 C 505.886719 230.691406 506.445313 229.152344 506.445313 227.097656 C 506.445313 225.554688 505.886719 223.5 503.652344 222.472656 C 506.445313 223.5 507.003906 225.039063 507.003906 227.097656 C 507.003906 229.152344 506.445313 230.691406 504.769531 231.71875 M 485.785156 243.023438 L 490.8125 221.957031 L 491.367188 221.957031 L 488.578125 233.773438 L 486.34375 243.023438 "/>
<path style=" stroke:none;fill-rule:nonzero;fill:rgb(13.299561%,12.199402%,12.199402%);fill-opacity:1;" d="M 491.925781 231.71875 L 493.601563 224.011719 L 499.1875 224.011719 C 501.417969 224.011719 503.652344 224.527344 503.652344 227.097656 C 503.652344 230.179688 501.417969 231.71875 498.628906 231.71875 Z M 499.742188 219.390625 L 488.574219 219.390625 L 482.433594 245.59375 L 488.574219 245.59375 L 490.8125 236.34375 L 498.628906 236.34375 C 504.769531 236.34375 509.796875 232.746094 509.796875 227.097656 C 509.796875 221.445313 505.886719 219.390625 499.742188 219.390625 "/>
<path style=" stroke:none;fill-rule:nonzero;fill:rgb(13.299561%,12.199402%,12.199402%);fill-opacity:1;" d="M 532.128906 242.511719 C 536.597656 239.941406 538.828125 235.316406 538.828125 230.179688 C 538.828125 226.070313 537.15625 222.984375 534.363281 221.957031 C 537.15625 222.984375 539.945313 225.039063 539.945313 230.179688 C 539.390625 235.316406 537.15625 240.453125 532.128906 242.511719 M 522.636719 243.023438 C 518.730469 241.996094 517.054688 238.914063 517.054688 234.289063 C 517.054688 229.664063 519.285156 225.039063 523.195313 222.984375 C 519.847656 225.554688 517.613281 230.179688 517.613281 234.289063 C 517.613281 238.914063 519.285156 241.996094 522.636719 243.023438 "/>
<g clip-path="url(#clip3)" clip-rule="nonzero">
<path style=" stroke:none;fill-rule:nonzero;fill:rgb(13.299561%,12.199402%,12.199402%);fill-opacity:1;" d="M 526.546875 241.480469 C 522.078125 241.480469 519.847656 238.398438 519.847656 234.804688 C 519.847656 229.664063 522.636719 224.011719 529.339844 224.011719 C 533.804688 224.011719 535.480469 227.097656 535.480469 230.691406 C 536.039063 235.316406 532.6875 241.480469 526.546875 241.480469 M 529.339844 218.875 C 519.847656 218.875 513.703125 226.070313 513.703125 234.804688 C 513.703125 241.996094 518.171875 246.621094 526.546875 246.621094 C 536.597656 246.621094 542.179688 238.914063 542.179688 230.179688 C 542.179688 222.984375 537.15625 218.875 529.339844 218.875 "/>
</g>
<path style=" stroke:none;fill-rule:nonzero;fill:rgb(13.299561%,12.199402%,12.199402%);fill-opacity:1;" d="M 547.765625 243.023438 L 552.789063 221.957031 L 553.347656 221.957031 L 548.882813 243.023438 Z M 547.765625 243.023438 "/>
<path style=" stroke:none;fill-rule:nonzero;fill:rgb(13.299561%,12.199402%,12.199402%);fill-opacity:1;" d="M 556.699219 219.390625 L 550.554688 219.390625 L 544.414063 245.59375 L 551.113281 245.59375 Z M 556.699219 219.390625 "/>
<path style=" stroke:none;fill-rule:nonzero;fill:rgb(13.299561%,12.199402%,12.199402%);fill-opacity:1;" d="M 584.058594 221.957031 L 584.058594 222.984375 Z M 565.632813 221.957031 L 567.867188 221.957031 L 568.984375 224.527344 L 565.074219 224.527344 L 564.515625 226.582031 Z M 560.605469 243.023438 L 564.515625 226.582031 Z M 577.359375 243.023438 L 576.242188 240.453125 L 580.148438 240.453125 L 579.59375 243.023438 Z M 577.359375 243.023438 "/>
<path style=" stroke:none;fill-rule:nonzero;fill:rgb(13.299561%,12.199402%,12.199402%);fill-opacity:1;" d="M 587.410156 219.390625 L 581.824219 219.390625 L 577.914063 237.886719 L 577.359375 237.886719 L 570.101563 219.390625 L 563.398438 219.390625 L 557.257813 245.59375 L 563.398438 245.59375 L 567.308594 227.097656 L 575.125 245.59375 L 581.265625 245.59375 "/>
<path style=" stroke:none;fill-rule:nonzero;fill:rgb(13.299561%,12.199402%,12.199402%);fill-opacity:1;" d="M 599.695313 243.023438 L 604.71875 221.957031 L 605.277344 221.957031 L 600.253906 243.023438 Z M 599.695313 243.023438 "/>
<path style=" stroke:none;fill-rule:nonzero;fill:rgb(13.299561%,12.199402%,12.199402%);fill-opacity:1;" d="M 617.003906 219.390625 L 593.550781 219.390625 L 592.433594 224.527344 L 601.367188 224.527344 L 596.34375 245.59375 L 602.484375 245.59375 L 607.511719 224.527344 L 615.886719 224.527344 "/>
<path style=" stroke:none;fill-rule:nonzero;fill:rgb(13.299561%,12.199402%,12.199402%);fill-opacity:1;" d="M 653.296875 225.554688 C 652.738281 224.011719 651.621094 222.984375 650.503906 222.472656 C 652.179688 222.984375 653.296875 224.011719 654.414063 225.554688 Z M 651.0625 240.453125 C 651.621094 239.941406 652.179688 238.914063 652.738281 237.886719 L 652.179688 240.453125 Z M 638.222656 243.023438 C 634.3125 241.996094 632.636719 238.914063 632.636719 234.289063 C 632.636719 229.664063 634.871094 225.039063 638.777344 222.984375 C 635.429688 225.554688 633.195313 230.179688 633.195313 234.289063 C 633.195313 238.914063 635.429688 241.996094 638.222656 243.023438 "/>
<g clip-path="url(#clip4)" clip-rule="nonzero">
<path style=" stroke:none;fill-rule:nonzero;fill:rgb(13.299561%,12.199402%,12.199402%);fill-opacity:1;" d="M 645.480469 218.875 C 635.988281 218.875 629.84375 226.070313 629.84375 234.804688 C 629.84375 241.996094 634.3125 246.621094 642.6875 246.621094 C 645.480469 246.621094 648.273438 245.59375 649.945313 243.539063 L 649.945313 246.105469 L 653.855469 246.105469 L 657.207031 231.71875 L 644.921875 231.71875 L 643.804688 235.832031 L 650.503906 235.832031 C 649.390625 239.425781 647.15625 241.480469 642.6875 241.480469 C 638.222656 241.480469 635.988281 238.398438 635.988281 234.804688 C 635.988281 229.664063 638.78125 224.011719 645.480469 224.011719 C 648.832031 224.011719 651.0625 225.039063 651.0625 228.636719 L 657.207031 228.636719 C 657.207031 221.957031 652.179688 218.875 645.480469 218.875 "/>
</g>
<path style=" stroke:none;fill-rule:nonzero;fill:rgb(13.299561%,12.199402%,12.199402%);fill-opacity:1;" d="M 684.566406 229.152344 C 684.566406 228.636719 685.125 228.125 685.125 227.097656 C 685.125 225.039063 684.566406 222.984375 681.773438 221.957031 C 685.125 222.472656 685.683594 224.011719 685.683594 226.070313 C 685.683594 227.609375 685.125 228.636719 684.566406 229.152344 Z M 663.90625 243.023438 L 668.933594 221.957031 L 669.488281 221.957031 L 667.257813 232.746094 Z M 681.214844 243.023438 L 681.214844 238.398438 C 681.214844 237.882813 681.214844 236.859375 680.65625 235.832031 C 681.214844 235.832031 681.214844 236.34375 681.214844 237.882813 L 681.214844 239.425781 C 681.773438 240.96875 681.773438 241.480469 681.214844 243.023438 C 681.773438 243.023438 681.773438 243.023438 681.214844 243.023438 "/>
<path style=" stroke:none;fill-rule:nonzero;fill:rgb(13.299561%,12.199402%,12.199402%);fill-opacity:1;" d="M 670.046875 231.207031 L 671.722656 224.011719 L 677.863281 224.011719 C 680.097656 224.011719 682.332031 224.527344 682.332031 227.097656 C 682.332031 230.179688 678.984375 231.207031 675.632813 231.207031 Z M 680.097656 219.390625 L 666.699219 219.390625 L 660.554688 245.59375 L 666.699219 245.59375 L 668.933594 235.316406 L 675.074219 235.316406 C 677.308594 235.316406 678.984375 235.832031 678.984375 238.398438 C 678.984375 239.941406 678.425781 241.996094 678.425781 243.539063 C 678.425781 244.050781 678.425781 244.5625 678.984375 245.078125 L 685.125 245.078125 C 684.566406 244.5625 684.566406 243.023438 684.566406 241.996094 L 684.566406 237.371094 C 684.566406 235.316406 684.007813 233.261719 681.773438 232.746094 C 685.683594 232.234375 688.476563 229.152344 688.476563 225.554688 C 688.476563 221.445313 685.125 219.390625 680.097656 219.390625 "/>
<path style=" stroke:none;fill-rule:nonzero;fill:rgb(13.299561%,12.199402%,12.199402%);fill-opacity:1;" d="M 710.808594 242.511719 C 715.277344 239.941406 717.511719 235.316406 717.511719 230.179688 C 717.511719 226.070313 715.835938 222.984375 713.042969 221.957031 C 715.835938 222.984375 718.628906 225.039063 718.628906 230.179688 C 718.070313 235.316406 715.835938 240.453125 710.808594 242.511719 M 701.316406 243.023438 C 697.410156 241.996094 695.734375 238.914063 695.734375 234.289063 C 695.734375 229.664063 697.96875 225.039063 701.875 222.984375 C 698.527344 225.554688 696.292969 230.179688 696.292969 234.289063 C 696.292969 238.914063 697.96875 241.996094 701.316406 243.023438 "/>
<g clip-path="url(#clip5)" clip-rule="nonzero">
<path style=" stroke:none;fill-rule:nonzero;fill:rgb(13.299561%,12.199402%,12.199402%);fill-opacity:1;" d="M 705.226563 241.480469 C 700.757813 241.480469 698.527344 238.398438 698.527344 234.804688 C 698.527344 229.664063 701.316406 224.011719 708.019531 224.011719 C 712.484375 224.011719 714.160156 227.097656 714.160156 230.691406 C 714.71875 235.316406 711.367188 241.480469 705.226563 241.480469 M 708.019531 218.875 C 698.527344 218.875 692.382813 226.070313 692.382813 234.804688 C 692.382813 241.996094 696.851563 246.621094 705.226563 246.621094 C 715.277344 246.621094 720.859375 238.914063 720.859375 230.179688 C 720.859375 222.984375 715.835938 218.875 708.019531 218.875 "/>
</g>
<path style=" stroke:none;fill-rule:nonzero;fill:rgb(13.299561%,12.199402%,12.199402%);fill-opacity:1;" d="M 743.195313 241.996094 C 745.429688 240.453125 745.988281 237.371094 746.546875 235.316406 L 749.894531 221.957031 L 750.453125 221.957031 L 747.664063 234.289063 C 746.546875 238.398438 745.429688 240.453125 743.195313 241.996094 M 732.585938 243.539063 C 730.351563 243.023438 727.5625 241.480469 727.5625 238.914063 C 727.5625 237.886719 727.5625 236.859375 728.121094 235.832031 L 731.46875 222.472656 L 732.027344 222.472656 L 729.234375 234.289063 C 728.679688 236.34375 728.679688 237.371094 728.679688 237.886719 C 728.675781 239.941406 729.796875 242.511719 732.585938 243.539063 "/>
<g clip-path="url(#clip6)" clip-rule="nonzero">
<path style=" stroke:none;fill-rule:nonzero;fill:rgb(13.299561%,12.199402%,12.199402%);fill-opacity:1;" d="M 753.804688 219.390625 L 747.660156 219.390625 L 744.3125 234.804688 C 743.195313 238.914063 742.636719 241.480469 737.054688 241.480469 C 732.585938 241.480469 731.46875 239.425781 731.46875 237.886719 C 731.46875 236.859375 732.027344 235.316406 732.027344 234.804688 L 735.378906 219.390625 L 729.234375 219.390625 L 725.886719 234.804688 C 725.328125 235.828125 725.328125 237.371094 725.328125 238.914063 C 725.328125 244.566406 730.910156 246.621094 736.492188 246.621094 C 745.429688 246.621094 748.777344 242.511719 750.453125 234.804688 "/>
</g>
<path style=" stroke:none;fill-rule:nonzero;fill:rgb(13.299561%,12.199402%,12.199402%);fill-opacity:1;" d="M 776.699219 231.71875 C 777.8125 230.691406 778.371094 229.152344 778.371094 227.097656 C 778.371094 225.554688 777.8125 223.5 775.582031 222.472656 C 778.371094 223.5 778.929688 225.039063 778.929688 227.097656 C 778.929688 229.152344 778.371094 230.691406 776.699219 231.71875 M 757.714844 243.023438 L 762.738281 221.957031 L 763.296875 221.957031 L 760.503906 233.773438 L 758.269531 243.023438 "/>
<g clip-path="url(#clip7)" clip-rule="nonzero">
<path style=" stroke:none;fill-rule:nonzero;fill:rgb(13.299561%,12.199402%,12.199402%);fill-opacity:1;" d="M 763.855469 231.71875 L 765.53125 224.011719 L 771.113281 224.011719 C 773.347656 224.011719 775.582031 224.527344 775.582031 227.097656 C 775.582031 230.179688 773.347656 231.71875 770.554688 231.71875 Z M 771.671875 219.390625 L 760.503906 219.390625 L 754.363281 245.59375 L 760.503906 245.59375 L 762.738281 236.34375 L 770.554688 236.34375 C 776.699219 236.34375 781.722656 232.746094 781.722656 227.097656 C 781.722656 221.445313 777.816406 219.390625 771.671875 219.390625 "/>
</g>
</g>
</svg>
